<mxfile host="app.diagrams.net" modified="2021-04-24T09:55:05.361Z" agent="5.0 (Windows NT 10.0; Win64; x64) AppleWebKit/537.36 (KHTML, like Gecko) Chrome/90.0.4430.72 Safari/537.36 Edg/90.0.818.42" etag="xkQZfYi7Legcu-iJfWJB" version="14.6.6" type="github">
  <diagram id="kgpKYQtTHZ0yAKxKKP6v" name="Page-1">
    <mxGraphModel dx="593" dy="331" grid="1" gridSize="10" guides="1" tooltips="1" connect="1" arrows="1" fold="1" page="1" pageScale="1" pageWidth="850" pageHeight="1400" math="0" shadow="0">
      <root>
        <mxCell id="0" />
        <mxCell id="1" parent="0" />
        <mxCell id="vsJlj80Gs5rXuC83Yg1f-1" value="" style="endArrow=none;html=1;entryX=0.5;entryY=1;entryDx=0;entryDy=0;" edge="1" parent="1" target="vsJlj80Gs5rXuC83Yg1f-2">
          <mxGeometry width="50" height="50" relative="1" as="geometry">
            <mxPoint x="400" y="200" as="sourcePoint" />
            <mxPoint x="370" y="200" as="targetPoint" />
          </mxGeometry>
        </mxCell>
        <mxCell id="vsJlj80Gs5rXuC83Yg1f-2" value="" style="rounded=0;whiteSpace=wrap;html=1;" vertex="1" parent="1">
          <mxGeometry x="340" y="110" width="120" height="60" as="geometry" />
        </mxCell>
        <mxCell id="vsJlj80Gs5rXuC83Yg1f-3" value="" style="endArrow=none;html=1;" edge="1" parent="1">
          <mxGeometry width="50" height="50" relative="1" as="geometry">
            <mxPoint x="80" y="200" as="sourcePoint" />
            <mxPoint x="400" y="200" as="targetPoint" />
          </mxGeometry>
        </mxCell>
        <mxCell id="vsJlj80Gs5rXuC83Yg1f-44" value="" style="edgeStyle=orthogonalEdgeStyle;rounded=0;orthogonalLoop=1;jettySize=auto;html=1;" edge="1" parent="1" source="vsJlj80Gs5rXuC83Yg1f-6" target="vsJlj80Gs5rXuC83Yg1f-43">
          <mxGeometry relative="1" as="geometry" />
        </mxCell>
        <mxCell id="vsJlj80Gs5rXuC83Yg1f-6" value="" style="rounded=1;whiteSpace=wrap;html=1;" vertex="1" parent="1">
          <mxGeometry x="150" y="230" width="80" height="40" as="geometry" />
        </mxCell>
        <mxCell id="vsJlj80Gs5rXuC83Yg1f-13" value="" style="rounded=1;whiteSpace=wrap;html=1;opacity=70;" vertex="1" parent="1">
          <mxGeometry x="800" y="230" width="120" height="60" as="geometry" />
        </mxCell>
        <mxCell id="vsJlj80Gs5rXuC83Yg1f-20" value="" style="endArrow=classic;html=1;" edge="1" parent="1">
          <mxGeometry width="50" height="50" relative="1" as="geometry">
            <mxPoint x="80" y="200" as="sourcePoint" />
            <mxPoint x="80" y="230" as="targetPoint" />
          </mxGeometry>
        </mxCell>
        <mxCell id="vsJlj80Gs5rXuC83Yg1f-23" value="" style="endArrow=classic;html=1;" edge="1" parent="1">
          <mxGeometry width="50" height="50" relative="1" as="geometry">
            <mxPoint x="314.71" y="198" as="sourcePoint" />
            <mxPoint x="314.71" y="230" as="targetPoint" />
          </mxGeometry>
        </mxCell>
        <mxCell id="vsJlj80Gs5rXuC83Yg1f-76" value="" style="edgeStyle=orthogonalEdgeStyle;rounded=0;orthogonalLoop=1;jettySize=auto;html=1;" edge="1" parent="1" source="vsJlj80Gs5rXuC83Yg1f-24" target="vsJlj80Gs5rXuC83Yg1f-75">
          <mxGeometry relative="1" as="geometry" />
        </mxCell>
        <mxCell id="vsJlj80Gs5rXuC83Yg1f-24" value="" style="rounded=1;whiteSpace=wrap;html=1;" vertex="1" parent="1">
          <mxGeometry x="425" y="230" width="90" height="40" as="geometry" />
        </mxCell>
        <mxCell id="vsJlj80Gs5rXuC83Yg1f-82" value="" style="edgeStyle=orthogonalEdgeStyle;rounded=0;orthogonalLoop=1;jettySize=auto;html=1;entryX=0.5;entryY=0;entryDx=0;entryDy=0;" edge="1" parent="1" source="vsJlj80Gs5rXuC83Yg1f-25" target="vsJlj80Gs5rXuC83Yg1f-80">
          <mxGeometry relative="1" as="geometry">
            <mxPoint x="660.0285714285715" y="410" as="targetPoint" />
          </mxGeometry>
        </mxCell>
        <mxCell id="vsJlj80Gs5rXuC83Yg1f-25" value="" style="rounded=1;whiteSpace=wrap;html=1;" vertex="1" parent="1">
          <mxGeometry x="550" y="230" width="90" height="40" as="geometry" />
        </mxCell>
        <mxCell id="vsJlj80Gs5rXuC83Yg1f-26" value="" style="endArrow=classic;html=1;" edge="1" parent="1">
          <mxGeometry width="50" height="50" relative="1" as="geometry">
            <mxPoint x="469.71" y="198.3599999999999" as="sourcePoint" />
            <mxPoint x="469.71" y="230" as="targetPoint" />
          </mxGeometry>
        </mxCell>
        <mxCell id="vsJlj80Gs5rXuC83Yg1f-27" value="" style="endArrow=none;html=1;" edge="1" parent="1">
          <mxGeometry width="50" height="50" relative="1" as="geometry">
            <mxPoint x="400" y="200" as="sourcePoint" />
            <mxPoint x="760" y="200" as="targetPoint" />
          </mxGeometry>
        </mxCell>
        <mxCell id="vsJlj80Gs5rXuC83Yg1f-28" value="" style="endArrow=classic;html=1;" edge="1" parent="1">
          <mxGeometry width="50" height="50" relative="1" as="geometry">
            <mxPoint x="594.71" y="198.3599999999999" as="sourcePoint" />
            <mxPoint x="594.71" y="230" as="targetPoint" />
          </mxGeometry>
        </mxCell>
        <mxCell id="vsJlj80Gs5rXuC83Yg1f-30" value="" style="endArrow=classic;html=1;" edge="1" parent="1">
          <mxGeometry width="50" height="50" relative="1" as="geometry">
            <mxPoint x="189.8" y="200" as="sourcePoint" />
            <mxPoint x="189.8" y="230" as="targetPoint" />
          </mxGeometry>
        </mxCell>
        <mxCell id="vsJlj80Gs5rXuC83Yg1f-43" value="" style="rounded=1;whiteSpace=wrap;html=1;" vertex="1" parent="1">
          <mxGeometry x="150" y="300" width="80" height="40" as="geometry" />
        </mxCell>
        <mxCell id="vsJlj80Gs5rXuC83Yg1f-47" value="" style="group" vertex="1" connectable="0" parent="1">
          <mxGeometry x="5" y="230" width="130" height="240" as="geometry" />
        </mxCell>
        <mxCell id="vsJlj80Gs5rXuC83Yg1f-5" value="SCN" style="rounded=1;whiteSpace=wrap;html=1;" vertex="1" parent="vsJlj80Gs5rXuC83Yg1f-47">
          <mxGeometry x="25" width="80" height="40" as="geometry" />
        </mxCell>
        <mxCell id="vsJlj80Gs5rXuC83Yg1f-29" value="" style="strokeWidth=2;html=1;shape=mxgraph.flowchart.annotation_2;align=left;labelPosition=right;pointerEvents=1;opacity=70;rotation=90;" vertex="1" parent="vsJlj80Gs5rXuC83Yg1f-47">
          <mxGeometry x="45" y="25" width="40" height="70" as="geometry" />
        </mxCell>
        <mxCell id="vsJlj80Gs5rXuC83Yg1f-33" value="" style="rounded=1;whiteSpace=wrap;html=1;" vertex="1" parent="vsJlj80Gs5rXuC83Yg1f-47">
          <mxGeometry x="75" y="80" width="50" height="40" as="geometry" />
        </mxCell>
        <mxCell id="vsJlj80Gs5rXuC83Yg1f-34" value="" style="rounded=1;whiteSpace=wrap;html=1;" vertex="1" parent="vsJlj80Gs5rXuC83Yg1f-47">
          <mxGeometry x="5" y="80" width="50" height="40" as="geometry" />
        </mxCell>
        <mxCell id="vsJlj80Gs5rXuC83Yg1f-36" value="" style="rounded=1;whiteSpace=wrap;html=1;" vertex="1" parent="vsJlj80Gs5rXuC83Yg1f-47">
          <mxGeometry x="70" y="150" width="60" height="30" as="geometry" />
        </mxCell>
        <mxCell id="vsJlj80Gs5rXuC83Yg1f-37" value="" style="edgeStyle=orthogonalEdgeStyle;rounded=0;orthogonalLoop=1;jettySize=auto;html=1;" edge="1" parent="vsJlj80Gs5rXuC83Yg1f-47" source="vsJlj80Gs5rXuC83Yg1f-33" target="vsJlj80Gs5rXuC83Yg1f-36">
          <mxGeometry relative="1" as="geometry" />
        </mxCell>
        <mxCell id="vsJlj80Gs5rXuC83Yg1f-38" value="" style="rounded=1;whiteSpace=wrap;html=1;" vertex="1" parent="vsJlj80Gs5rXuC83Yg1f-47">
          <mxGeometry x="70" y="210" width="60" height="30" as="geometry" />
        </mxCell>
        <mxCell id="vsJlj80Gs5rXuC83Yg1f-39" value="" style="edgeStyle=orthogonalEdgeStyle;rounded=0;orthogonalLoop=1;jettySize=auto;html=1;" edge="1" parent="vsJlj80Gs5rXuC83Yg1f-47" source="vsJlj80Gs5rXuC83Yg1f-36" target="vsJlj80Gs5rXuC83Yg1f-38">
          <mxGeometry relative="1" as="geometry" />
        </mxCell>
        <mxCell id="vsJlj80Gs5rXuC83Yg1f-42" value="" style="edgeStyle=orthogonalEdgeStyle;rounded=0;orthogonalLoop=1;jettySize=auto;html=1;" edge="1" parent="vsJlj80Gs5rXuC83Yg1f-47" source="vsJlj80Gs5rXuC83Yg1f-40" target="vsJlj80Gs5rXuC83Yg1f-34">
          <mxGeometry relative="1" as="geometry" />
        </mxCell>
        <mxCell id="vsJlj80Gs5rXuC83Yg1f-40" value="" style="rounded=1;whiteSpace=wrap;html=1;" vertex="1" parent="vsJlj80Gs5rXuC83Yg1f-47">
          <mxGeometry y="170" width="60" height="30" as="geometry" />
        </mxCell>
        <mxCell id="vsJlj80Gs5rXuC83Yg1f-41" value="" style="edgeStyle=orthogonalEdgeStyle;rounded=0;orthogonalLoop=1;jettySize=auto;html=1;" edge="1" parent="vsJlj80Gs5rXuC83Yg1f-47" source="vsJlj80Gs5rXuC83Yg1f-38" target="vsJlj80Gs5rXuC83Yg1f-40">
          <mxGeometry relative="1" as="geometry" />
        </mxCell>
        <mxCell id="vsJlj80Gs5rXuC83Yg1f-51" value="" style="rounded=1;whiteSpace=wrap;html=1;" vertex="1" parent="1">
          <mxGeometry x="330" y="310" width="70" height="30" as="geometry" />
        </mxCell>
        <mxCell id="vsJlj80Gs5rXuC83Yg1f-67" value="" style="edgeStyle=orthogonalEdgeStyle;rounded=0;orthogonalLoop=1;jettySize=auto;html=1;" edge="1" parent="1" source="vsJlj80Gs5rXuC83Yg1f-65" target="vsJlj80Gs5rXuC83Yg1f-66">
          <mxGeometry x="260" y="230" as="geometry" />
        </mxCell>
        <mxCell id="vsJlj80Gs5rXuC83Yg1f-65" value="" style="rounded=1;whiteSpace=wrap;html=1;" vertex="1" parent="1">
          <mxGeometry x="240" y="310" width="70" height="30" as="geometry" />
        </mxCell>
        <mxCell id="vsJlj80Gs5rXuC83Yg1f-69" value="" style="edgeStyle=orthogonalEdgeStyle;rounded=0;orthogonalLoop=1;jettySize=auto;html=1;" edge="1" parent="1" source="vsJlj80Gs5rXuC83Yg1f-66" target="vsJlj80Gs5rXuC83Yg1f-68">
          <mxGeometry x="260" y="230" as="geometry" />
        </mxCell>
        <mxCell id="vsJlj80Gs5rXuC83Yg1f-66" value="" style="rounded=1;whiteSpace=wrap;html=1;" vertex="1" parent="1">
          <mxGeometry x="240" y="360" width="70" height="30" as="geometry" />
        </mxCell>
        <mxCell id="vsJlj80Gs5rXuC83Yg1f-71" value="" style="edgeStyle=orthogonalEdgeStyle;rounded=0;orthogonalLoop=1;jettySize=auto;html=1;" edge="1" parent="1" source="vsJlj80Gs5rXuC83Yg1f-68" target="vsJlj80Gs5rXuC83Yg1f-70">
          <mxGeometry relative="1" as="geometry" />
        </mxCell>
        <mxCell id="vsJlj80Gs5rXuC83Yg1f-68" value="" style="rounded=1;whiteSpace=wrap;html=1;" vertex="1" parent="1">
          <mxGeometry x="240" y="410" width="70" height="30" as="geometry" />
        </mxCell>
        <mxCell id="vsJlj80Gs5rXuC83Yg1f-73" value="" style="edgeStyle=orthogonalEdgeStyle;rounded=0;orthogonalLoop=1;jettySize=auto;html=1;" edge="1" parent="1" source="vsJlj80Gs5rXuC83Yg1f-70" target="vsJlj80Gs5rXuC83Yg1f-72">
          <mxGeometry relative="1" as="geometry" />
        </mxCell>
        <mxCell id="vsJlj80Gs5rXuC83Yg1f-70" value="" style="rounded=1;whiteSpace=wrap;html=1;" vertex="1" parent="1">
          <mxGeometry x="240" y="460" width="70" height="30" as="geometry" />
        </mxCell>
        <mxCell id="vsJlj80Gs5rXuC83Yg1f-74" value="" style="edgeStyle=orthogonalEdgeStyle;rounded=0;orthogonalLoop=1;jettySize=auto;html=1;" edge="1" parent="1" source="vsJlj80Gs5rXuC83Yg1f-72" target="vsJlj80Gs5rXuC83Yg1f-51">
          <mxGeometry relative="1" as="geometry" />
        </mxCell>
        <mxCell id="vsJlj80Gs5rXuC83Yg1f-72" value="" style="rounded=1;whiteSpace=wrap;html=1;" vertex="1" parent="1">
          <mxGeometry x="330" y="380" width="70" height="30" as="geometry" />
        </mxCell>
        <mxCell id="vsJlj80Gs5rXuC83Yg1f-75" value="" style="rounded=1;whiteSpace=wrap;html=1;" vertex="1" parent="1">
          <mxGeometry x="425" y="310" width="90" height="40" as="geometry" />
        </mxCell>
        <mxCell id="vsJlj80Gs5rXuC83Yg1f-77" value="" style="group" vertex="1" connectable="0" parent="1">
          <mxGeometry x="270" y="230" width="90" height="80" as="geometry" />
        </mxCell>
        <mxCell id="vsJlj80Gs5rXuC83Yg1f-49" value="" style="strokeWidth=2;html=1;shape=mxgraph.flowchart.annotation_2;align=left;labelPosition=right;pointerEvents=1;opacity=70;rotation=90;" vertex="1" parent="vsJlj80Gs5rXuC83Yg1f-77">
          <mxGeometry x="25" y="25" width="40" height="70" as="geometry" />
        </mxCell>
        <mxCell id="vsJlj80Gs5rXuC83Yg1f-22" value="" style="rounded=1;whiteSpace=wrap;html=1;" vertex="1" parent="vsJlj80Gs5rXuC83Yg1f-77">
          <mxGeometry width="90" height="40" as="geometry" />
        </mxCell>
        <mxCell id="vsJlj80Gs5rXuC83Yg1f-78" value="" style="group" vertex="1" connectable="0" parent="1">
          <mxGeometry x="550" y="290" width="90" height="111.25" as="geometry" />
        </mxCell>
        <mxCell id="vsJlj80Gs5rXuC83Yg1f-79" value="" style="strokeWidth=2;html=1;shape=mxgraph.flowchart.annotation_2;align=left;labelPosition=right;pointerEvents=1;opacity=70;rotation=90;" vertex="1" parent="vsJlj80Gs5rXuC83Yg1f-78">
          <mxGeometry x="23.75" y="8.75" width="40" height="102.5" as="geometry" />
        </mxCell>
        <mxCell id="vsJlj80Gs5rXuC83Yg1f-80" value="" style="rounded=1;whiteSpace=wrap;html=1;" vertex="1" parent="vsJlj80Gs5rXuC83Yg1f-78">
          <mxGeometry width="90" height="40" as="geometry" />
        </mxCell>
      </root>
    </mxGraphModel>
  </diagram>
</mxfile>
